<?xml version="1.0" encoding="UTF-8"?>
<svg width="120" height="120" viewBox="0 0 120 120" fill="none" xmlns="http://www.w3.org/2000/svg">
  <circle cx="60" cy="60" r="60" fill="#F3F4F6"/>
  <path d="M40 30H80C85.5228 30 90 34.4772 90 40V80C90 85.5228 85.5228 90 80 90H40C34.4772 90 30 85.5228 30 80V40C30 34.4772 34.4772 30 40 30Z" fill="#0038A8"/>
  <path d="M30 40C30 34.4772 34.4772 30 40 30H80C85.5228 30 90 34.4772 90 40V80C90 85.5228 85.5228 90 80 90H40C34.4772 90 30 85.5228 30 80V40Z" fill="#0038A8"/>
  <path d="M30 80V40C30 34.4772 34.4772 30 40 30H80C85.5228 30 90 34.4772 90 40V80C90 85.5228 85.5228 90 80 90H40C34.4772 90 30 85.5228 30 80Z" stroke="#0038A8" stroke-width="2"/>
  <path d="M90 40L30 80" stroke="#CE1126" stroke-width="8"/>
  <path d="M30 40L90 80" stroke="#CE1126" stroke-width="8"/>
  <path d="M60 38L63.0615 47.3475H72.8057L64.8721 53.055L67.9336 62.4025L60 56.695L52.0664 62.4025L55.1279 53.055L47.1943 47.3475H56.9385L60 38Z" fill="#FCD116"/>
</svg>